<svg xmlns="http://www.w3.org/2000/svg" width="147" height="32" viewBox="0 0 147 32" fill="none"><g clip-path="url(#clip0_4381_10249)"><path d="M1.119 5.58887H36.1473C36.7335 5.58887 37.209 6.06408 37.209 6.65055C37.209 7.23672 36.7335 7.71193 36.1473 7.71193H1.119C0.532832 7.71193 0.0576173 7.23672 0.0576173 6.65055C0.0573183 6.06408 0.532533 5.58887 1.119 5.58887Z" fill="url(#paint0_linear_4381_10249)"></path><path d="M1.11876 9.3042H38.9777C39.5639 9.3042 40.0394 9.77941 40.0394 10.3653C40.0394 10.9515 39.5642 11.427 38.9777 11.427H1.11876C0.532588 11.427 0.057373 10.9515 0.057373 10.3653C0.057373 9.77941 0.532588 9.3042 1.11876 9.3042Z" fill="url(#paint1_linear_4381_10249)"></path><path d="M1.11876 13.019H42.1625C42.7487 13.019 43.2236 13.494 43.2236 14.0804C43.2236 14.6669 42.7487 15.1418 42.1625 15.1418H1.11876C0.532588 15.1418 0.057373 14.6669 0.057373 14.0804C0.057373 13.4943 0.532588 13.019 1.11876 13.019Z" fill="url(#paint2_linear_4381_10249)"></path><path d="M1.11876 16.7344H38.9777C39.5639 16.7344 40.0394 17.2096 40.0394 17.7958C40.0394 18.3819 39.5642 18.8574 38.9777 18.8574H1.11876C0.532588 18.8574 0.057373 18.3819 0.057373 17.7958C0.057373 17.2096 0.532588 16.7344 1.11876 16.7344Z" fill="url(#paint3_linear_4381_10249)"></path><path d="M1.11876 20.4497H35.7936C36.3798 20.4497 36.8553 20.9249 36.8553 21.5117C36.8553 22.0973 36.3798 22.5731 35.7936 22.5731H1.11876C0.532588 22.5731 0.057373 22.0973 0.057373 21.5117C0.057373 20.9249 0.532588 20.4497 1.11876 20.4497Z" fill="url(#paint4_linear_4381_10249)"></path><path d="M138.228 20.1952C136.447 20.1952 135.066 19.2944 135.066 17.745V17.7088C135.066 16.0149 136.484 15.0782 138.882 15.0782C140.336 15.0782 141.608 15.5462 142.554 15.9069V16.7356C142.554 18.7899 140.7 20.1952 138.228 20.1952ZM116.638 14.4657C116.638 11.2585 118.747 9.31281 121.291 9.31281C123.799 9.31281 126.016 11.3306 126.016 14.4657V14.5381C126.016 21.2395 116.638 21.4501 116.638 14.4657ZM125.943 19.871V22.5375H129.687V0.267578H125.943V8.95244C124.78 7.40298 123.072 6.10563 120.418 6.10563C116.529 6.10563 112.858 9.13247 112.858 14.4657C112.858 22.503 121.674 25.7687 125.943 19.871ZM72.3692 22.8979C75.3493 22.8979 77.4939 21.7085 79.0207 19.9069L76.8396 17.9606C75.5309 19.2226 74.2589 19.9069 72.4415 19.9069C70.0424 19.9069 68.1529 18.4295 67.7525 15.7986H79.7106C79.7106 15.6186 79.7196 15.4475 79.7292 15.2762C79.7375 15.1054 79.7471 14.9337 79.7471 14.7537C79.7471 10.1415 77.13 6.10563 71.9693 6.10563C67.317 6.10563 64.0459 9.88911 64.0459 14.501V14.5378C64.0459 19.5106 67.6439 22.8979 72.3692 22.8979ZM67.7528 13.0601C68.1894 10.7178 69.7523 9.13247 71.9328 9.13247C74.2954 9.13247 75.6771 10.8261 76.0399 13.0601H67.7528ZM84.5085 13.0601C84.9452 10.7178 86.5081 9.13247 88.6889 9.13247C91.0512 9.13247 92.4323 10.8261 92.7594 13.0601H84.5085ZM89.1249 22.8979C92.1054 22.8979 94.2129 21.7085 95.7396 19.9069L93.5588 17.9606C92.2866 19.2226 90.9791 19.9069 89.1608 19.9069C86.7626 19.9069 84.9084 18.4295 84.5085 15.7986H96.4305C96.4335 15.7681 96.4364 15.7379 96.4397 15.7083C96.472 15.3829 96.5028 15.0842 96.5028 14.7537C96.5028 10.1415 93.8857 6.10563 88.7244 6.10563C84.0722 6.10563 80.7654 9.88911 80.7654 14.501V14.5378C80.7657 19.5106 84.3997 22.8979 89.1249 22.8979ZM98.3926 22.5375H102.137V17.9253L104.426 15.5465L109.224 22.5378H113.622L106.934 12.988L113.405 6.42952H108.861L102.137 13.5646V0.267578H98.3926V22.5375ZM55.032 22.8614C59.5754 22.8614 62.7372 20.4835 62.7372 16.4835V16.4117C62.7372 12.8801 60.4116 11.2585 55.8314 10.1415C51.6888 9.16836 50.7069 8.44791 50.7069 6.79019V6.75401C50.7069 5.349 52.0157 4.1952 54.1958 4.1952C56.1954 4.1952 58.1214 4.95214 60.0477 6.39363L62.0834 3.58302C59.9023 1.81734 57.4308 0.880064 54.2691 0.880064C49.9805 0.880064 46.9271 3.40268 46.9271 7.07819V7.15027C46.9271 11.0782 49.5077 12.4114 54.0867 13.5284C58.0852 14.4286 58.9573 15.2579 58.9573 16.7712V16.8436C58.9573 18.4292 57.4673 19.5103 55.1409 19.5103C52.4873 19.5103 50.3798 18.5016 48.3443 16.7353L46.0547 19.438C48.6353 21.7088 51.7612 22.8614 55.032 22.8614ZM137.175 22.8614C139.683 22.8614 141.354 21.8532 142.48 20.5191V22.5375H146.115V12.988C146.115 10.8982 145.534 9.16806 144.334 8.01517C143.207 6.86227 141.39 6.2136 138.955 6.2136C136.375 6.2136 134.63 6.75431 132.849 7.54683L133.83 10.4301C135.284 9.81704 136.665 9.42077 138.482 9.42077C141.099 9.42077 142.517 10.646 142.517 12.9163V13.3128C141.245 12.9163 139.936 12.6644 138.12 12.6644C134.157 12.6644 131.431 14.358 131.431 17.8535V17.8891C131.431 21.1322 134.121 22.8614 137.175 22.8614Z" fill="white"></path><path d="M83.7217 27.2679L83.3574 28.3711H82.8896L84.0808 24.8628H84.6269L85.8238 28.3711H85.3402L84.9661 27.2679H83.7217ZM84.8722 26.9129L84.5279 25.9041C84.4502 25.6754 84.3984 25.4672 84.3467 25.2638H84.3365C84.2839 25.472 84.2268 25.6852 84.1589 25.8991L83.8156 26.9129H84.8722Z" fill="white"></path><path d="M86.3083 26.534C86.3083 26.2741 86.3026 26.0606 86.2874 25.8533H86.6932L86.7192 26.2696H86.7297C86.8544 26.0295 87.1454 25.7959 87.5626 25.7959C87.9107 25.7959 88.4523 26.004 88.4523 26.8677V28.3717H87.9941V26.9192C87.9941 26.5134 87.8428 26.1754 87.4118 26.1754C87.1089 26.1754 86.8753 26.3883 86.7976 26.6434C86.7766 26.7012 86.7662 26.7789 86.7662 26.857V28.3717H86.3086V26.534H86.3083Z" fill="white"></path><path d="M90.882 27.2679L90.5177 28.3711H90.0503L91.2409 24.8628H91.7873L92.9841 28.3711H92.5002L92.1261 27.2679H90.882ZM92.0316 26.9129L91.6883 25.9041C91.6102 25.6754 91.5579 25.4672 91.5064 25.2638H91.496C91.4442 25.472 91.3865 25.6852 91.3192 25.8991L90.9759 26.9129H92.0316Z" fill="white"></path><path d="M93.3896 27.9027C93.5251 27.9907 93.7647 28.084 93.994 28.084C94.3266 28.084 94.4827 27.9183 94.4827 27.7098C94.4827 27.4909 94.3523 27.3716 94.0144 27.2466C93.5619 27.0857 93.349 26.836 93.349 26.5333C93.349 26.1278 93.6764 25.7949 94.2174 25.7949C94.4728 25.7949 94.6968 25.8673 94.8365 25.9504L94.7217 26.2842C94.623 26.2217 94.4411 26.1385 94.2067 26.1385C93.9363 26.1385 93.7856 26.2944 93.7856 26.4816C93.7856 26.69 93.9363 26.7833 94.2644 26.908C94.7013 27.0749 94.9247 27.2932 94.9247 27.668C94.9247 28.1103 94.5817 28.4225 93.9833 28.4225C93.7075 28.4225 93.453 28.3552 93.2754 28.2508L93.3896 27.9027Z" fill="white"></path><path d="M95.5128 26.6739C95.5128 26.3518 95.5024 26.0916 95.4922 25.8526H95.9028L95.9243 26.2842H95.9345C96.1211 25.9768 96.4184 25.7949 96.8293 25.7949C97.4376 25.7949 97.8955 26.3099 97.8955 27.0746C97.8955 27.9799 97.344 28.4267 96.7513 28.4267C96.4184 28.4267 96.1271 28.2817 95.9758 28.0325H95.9656V29.4008H95.5125V26.6739H95.5128ZM95.9659 27.3456C95.9659 27.4129 95.9761 27.4757 95.9856 27.5331C96.0697 27.8507 96.3451 28.069 96.6738 28.069C97.1571 28.069 97.4379 27.6739 97.4379 27.0959C97.4379 26.591 97.1723 26.1592 96.6888 26.1592C96.3762 26.1592 96.0849 26.3838 95.997 26.7265C95.9812 26.7833 95.9659 26.8515 95.9659 26.9128V27.3456Z" fill="white"></path><path d="M98.9832 25.1446C98.9885 25.3013 98.8743 25.4254 98.6922 25.4254C98.5304 25.4254 98.4155 25.3013 98.4155 25.1446C98.4155 24.9834 98.5358 24.8584 98.7023 24.8584C98.874 24.8584 98.9832 24.9834 98.9832 25.1446ZM98.473 28.3712V25.8528H98.9308V28.3712H98.473Z" fill="white"></path><path d="M99.6907 26.6377C99.6907 26.3413 99.6854 26.0862 99.6704 25.8526H100.071L100.087 26.3464H100.108C100.222 26.0079 100.497 25.7949 100.805 25.7949C100.857 25.7949 100.893 25.7997 100.935 25.8099V26.242C100.888 26.2319 100.841 26.2265 100.779 26.2265C100.456 26.2265 100.227 26.4708 100.165 26.8147C100.155 26.8772 100.144 26.9499 100.144 27.0277V28.3708H99.691V26.6377H99.6907Z" fill="white"></path><path d="M101.595 27.195C101.606 27.8144 102.001 28.0692 102.46 28.0692C102.788 28.0692 102.985 28.0118 103.157 27.9391L103.235 28.2669C103.073 28.3396 102.798 28.423 102.397 28.423C101.622 28.423 101.158 27.9131 101.158 27.1532C101.158 26.3929 101.606 25.7954 102.34 25.7954C103.162 25.7954 103.381 26.5186 103.381 26.9812C103.381 27.0751 103.37 27.1481 103.364 27.195H101.595ZM102.938 26.8673C102.944 26.5757 102.819 26.1232 102.303 26.1232C101.84 26.1232 101.637 26.5497 101.6 26.8673H102.938Z" fill="white"></path><path d="M105.004 27.8191C105.206 27.9438 105.503 28.0485 105.815 28.0485C106.278 28.0485 106.549 27.8045 106.549 27.4501C106.549 27.122 106.362 26.9345 105.888 26.753C105.316 26.5496 104.961 26.2538 104.961 25.7589C104.961 25.2128 105.415 24.8066 106.096 24.8066C106.455 24.8066 106.716 24.8895 106.871 24.9774L106.746 25.3474C106.632 25.2851 106.398 25.1811 106.08 25.1811C105.602 25.1811 105.42 25.4673 105.42 25.7068C105.42 26.0343 105.633 26.1958 106.117 26.3839C106.709 26.6118 107.011 26.8986 107.011 27.4127C107.011 27.9543 106.612 28.4229 105.784 28.4229C105.446 28.4229 105.076 28.3242 104.889 28.1989L105.004 27.8191Z" fill="white"></path><path d="M109.926 27.091C109.926 28.0217 109.281 28.4275 108.672 28.4275C107.991 28.4275 107.465 27.9277 107.465 27.1325C107.465 26.2898 108.017 25.7954 108.714 25.7954C109.437 25.7954 109.926 26.3212 109.926 27.091ZM107.928 27.117C107.928 27.6685 108.246 28.0842 108.693 28.0842C109.13 28.0842 109.458 27.6738 109.458 27.1059C109.458 26.6789 109.245 26.1387 108.704 26.1387C108.162 26.1387 107.928 26.6379 107.928 27.117Z" fill="white"></path><path d="M110.55 28.3712V26.2009H110.197V25.8528H110.55V25.7329C110.55 25.3782 110.628 25.0561 110.842 24.853C111.014 24.687 111.242 24.6191 111.456 24.6191C111.617 24.6191 111.758 24.6559 111.846 24.6918L111.784 25.0453C111.716 25.0142 111.622 24.9891 111.492 24.9891C111.102 24.9891 111.003 25.3324 111.003 25.7176V25.8534H111.612V26.2015H111.003V28.3718H110.55V28.3712Z" fill="white"></path><path d="M112.632 25.1289V25.8526H113.287V26.2008H112.632V27.5591C112.632 27.8713 112.72 28.0481 112.975 28.0481C113.095 28.0481 113.183 28.0328 113.24 28.017L113.261 28.36C113.172 28.3965 113.032 28.4225 112.855 28.4225C112.642 28.4225 112.47 28.3552 112.361 28.2302C112.231 28.0941 112.183 27.871 112.183 27.5738V26.2005H111.793V25.8523H112.183V25.2479L112.632 25.1289Z" fill="white"></path><path d="M114.031 25.8528L114.364 27.1322C114.436 27.4128 114.505 27.6738 114.551 27.9334H114.567C114.624 27.6786 114.707 27.4086 114.79 27.1373L115.202 25.8528H115.587L115.977 27.1113C116.071 27.4128 116.144 27.6786 116.201 27.9334H116.216C116.259 27.6786 116.325 27.4128 116.409 27.117L116.769 25.8528H117.221L116.409 28.3713H115.993L115.608 27.169C115.519 26.8882 115.447 26.6379 115.384 26.3412H115.373C115.312 26.6427 115.233 26.9029 115.145 27.1735L114.739 28.371H114.322L113.563 25.8525L114.031 25.8528Z" fill="white"></path><path d="M119.053 28.3713L119.016 28.0537H119.001C118.86 28.251 118.589 28.4272 118.23 28.4272C117.721 28.4272 117.461 28.0689 117.461 27.704C117.461 27.0957 118.002 26.7623 118.975 26.768V26.7162C118.975 26.5078 118.917 26.1337 118.402 26.1337C118.168 26.1337 117.924 26.206 117.746 26.3209L117.643 26.0188C117.85 25.8839 118.153 25.7954 118.47 25.7954C119.24 25.7954 119.427 26.3212 119.427 26.8251V27.7671C119.427 27.9858 119.438 28.1987 119.47 28.3713H119.053ZM118.985 27.0859C118.485 27.0751 117.918 27.1633 117.918 27.6526C117.918 27.949 118.116 28.0895 118.35 28.0895C118.678 28.0895 118.886 27.8823 118.959 27.6685C118.975 27.6215 118.985 27.5701 118.985 27.5228V27.0859Z" fill="white"></path><path d="M120.166 26.6377C120.166 26.3413 120.161 26.0862 120.146 25.8526H120.547L120.562 26.3464H120.583C120.697 26.0079 120.973 25.7949 121.279 25.7949C121.332 25.7949 121.368 25.7997 121.409 25.8099V26.242C121.363 26.2319 121.316 26.2265 121.254 26.2265C120.931 26.2265 120.703 26.4708 120.64 26.8147C120.629 26.8772 120.619 26.9499 120.619 27.0277V28.3708H120.166V26.6377Z" fill="white"></path><path d="M122.071 27.195C122.081 27.8144 122.476 28.0692 122.934 28.0692C123.263 28.0692 123.46 28.0118 123.632 27.9391L123.71 28.2669C123.549 28.3396 123.273 28.423 122.872 28.423C122.097 28.423 121.633 27.9131 121.633 27.1532C121.633 26.3929 122.081 25.7954 122.815 25.7954C123.637 25.7954 123.855 26.5186 123.855 26.9812C123.855 27.0751 123.845 27.1481 123.84 27.195H122.071ZM123.412 26.8673C123.418 26.5757 123.294 26.1232 122.779 26.1232C122.315 26.1232 122.112 26.5497 122.076 26.8673H123.412Z" fill="white"></path><path d="M127.992 28.2562C127.825 28.339 127.493 28.4228 127.066 28.4228C126.077 28.4228 125.333 27.7983 125.333 26.6484C125.333 25.5505 126.077 24.8062 127.164 24.8062C127.602 24.8062 127.878 24.8998 127.997 24.962L127.888 25.3316C127.716 25.2482 127.471 25.186 127.18 25.186C126.359 25.186 125.812 25.7114 125.812 26.6325C125.812 27.4906 126.307 28.0429 127.16 28.0429C127.435 28.0429 127.716 27.9858 127.898 27.8973L127.992 28.2562Z" fill="white"></path><path d="M130.765 27.091C130.765 28.0217 130.12 28.4275 129.511 28.4275C128.83 28.4275 128.304 27.9277 128.304 27.1325C128.304 26.2898 128.856 25.7954 129.553 25.7954C130.276 25.7954 130.765 26.3212 130.765 27.091ZM128.767 27.117C128.767 27.6685 129.084 28.0842 129.532 28.0842C129.969 28.0842 130.298 27.6738 130.298 27.1059C130.298 26.6789 130.084 26.1387 129.543 26.1387C129.001 26.1387 128.767 26.6379 128.767 27.117Z" fill="white"></path><path d="M131.342 26.5336C131.342 26.2737 131.338 26.0602 131.323 25.8529H131.723L131.744 26.2588H131.759C131.901 26.0186 132.134 25.7952 132.55 25.7952C132.893 25.7952 133.154 26.0034 133.263 26.3H133.274C133.352 26.1589 133.451 26.0494 133.555 25.9717C133.705 25.8574 133.872 25.7949 134.111 25.7949C134.444 25.7949 134.939 26.0132 134.939 26.8877V28.3708H134.492V26.9439C134.492 26.4606 134.314 26.1688 133.945 26.1688C133.685 26.1688 133.482 26.3617 133.404 26.5851C133.382 26.6482 133.367 26.731 133.367 26.8147V28.3708H132.92V26.8608C132.92 26.4606 132.743 26.1691 132.394 26.1691C132.108 26.1691 131.901 26.3978 131.827 26.6269C131.802 26.6948 131.791 26.7729 131.791 26.8512V28.3708H131.343V26.5336H131.342Z" fill="white"></path><path d="M135.683 26.6739C135.683 26.3518 135.672 26.0916 135.662 25.8526H136.072L136.093 26.2842H136.103C136.291 25.9768 136.587 25.7949 136.999 25.7949C137.607 25.7949 138.065 26.3099 138.065 27.0746C138.065 27.9799 137.514 28.4267 136.921 28.4267C136.587 28.4267 136.296 28.2817 136.145 28.0325H136.135V29.4008H135.683V26.6739H135.683ZM136.135 27.3456C136.135 27.4129 136.146 27.4757 136.155 27.5331C136.239 27.8507 136.515 28.069 136.843 28.069C137.327 28.069 137.607 27.6739 137.607 27.0959C137.607 26.591 137.342 26.1592 136.858 26.1592C136.546 26.1592 136.254 26.3838 136.166 26.7265C136.15 26.7833 136.135 26.8515 136.135 26.9128V27.3456H136.135Z" fill="white"></path><path d="M140.037 28.3713L140.001 28.0537H139.985C139.845 28.251 139.575 28.4272 139.215 28.4272C138.706 28.4272 138.445 28.0689 138.445 27.704C138.445 27.0957 138.986 26.7623 139.96 26.768V26.7162C139.96 26.5078 139.902 26.1337 139.387 26.1337C139.152 26.1337 138.908 26.206 138.731 26.3209L138.627 26.0188C138.835 25.8839 139.137 25.7954 139.455 25.7954C140.224 25.7954 140.412 26.3212 140.412 26.8251V27.7671C140.412 27.9858 140.423 28.1987 140.454 28.3713H140.037ZM139.97 27.0859C139.47 27.0751 138.902 27.1633 138.902 27.6526C138.902 27.949 139.1 28.0895 139.335 28.0895C139.662 28.0895 139.871 27.8823 139.944 27.6685C139.96 27.6215 139.97 27.5701 139.97 27.5228V27.0859Z" fill="white"></path><path d="M141.151 26.534C141.151 26.2741 141.146 26.0606 141.13 25.8533H141.536L141.562 26.2696H141.572C141.697 26.0295 141.989 25.7959 142.405 25.7959C142.754 25.7959 143.295 26.004 143.295 26.8677V28.3717H142.837V26.9192C142.837 26.5134 142.686 26.1754 142.254 26.1754C141.953 26.1754 141.718 26.3883 141.64 26.6434C141.62 26.7012 141.609 26.7789 141.609 26.857V28.3717H141.151V26.534Z" fill="white"></path><path d="M144.138 25.853L144.689 27.3406C144.746 27.5072 144.808 27.7045 144.85 27.8565H144.861C144.908 27.7045 144.959 27.5125 145.022 27.3313L145.522 25.8533H146.005L145.318 27.6483C144.991 28.5117 144.767 28.954 144.454 29.2247C144.23 29.4227 144.007 29.5001 143.893 29.5214L143.778 29.1362C143.892 29.0997 144.044 29.027 144.179 28.9125C144.304 28.8141 144.46 28.6361 144.564 28.4026C144.585 28.3565 144.6 28.3197 144.6 28.2934C144.6 28.2674 144.59 28.2315 144.569 28.1732L143.638 25.8536H144.138V25.853Z" fill="white"></path></g><defs><linearGradient id="paint0_linear_4381_10249" x1="37.2089" y1="6.65004" x2="0.0572895" y2="6.65004" gradientUnits="userSpaceOnUse"><stop stop-color="#FCCA20"></stop><stop offset="1" stop-color="white" stop-opacity="0"></stop></linearGradient><linearGradient id="paint1_linear_4381_10249" x1="40.2453" y1="10.3653" x2="0.0573443" y2="10.3653" gradientUnits="userSpaceOnUse"><stop stop-color="#E31057"></stop><stop offset="1" stop-color="white" stop-opacity="0"></stop></linearGradient><linearGradient id="paint2_linear_4381_10249" x1="43.2237" y1="14.0802" x2="0.0573422" y2="14.0802" gradientUnits="userSpaceOnUse"><stop stop-color="#268BBA"></stop><stop offset="1" stop-color="white" stop-opacity="0"></stop></linearGradient><linearGradient id="paint3_linear_4381_10249" x1="38.1601" y1="17.7957" x2="0.0575547" y2="17.7957" gradientUnits="userSpaceOnUse"><stop stop-color="#85D084"></stop><stop offset="1" stop-color="white" stop-opacity="0"></stop></linearGradient><linearGradient id="paint4_linear_4381_10249" x1="36.8408" y1="20.99" x2="0.718757" y2="22.0149" gradientUnits="userSpaceOnUse"><stop stop-color="#FCCA20"></stop><stop offset="1" stop-color="white" stop-opacity="0"></stop></linearGradient><clipPath id="clip0_4381_10249"><rect width="146.542" height="32" fill="white"></rect></clipPath></defs></svg>